# xmcd
#
# Track frame offsets: 
#        150
#        11509
#        21306
#        34893
#        46358
#        63460
#        73950
#        86359
#        97331
#        108045
#
# Disc length: 1639 seconds
#
# Revision: 0
# Processed by: cddbd v1.5.2PL0 Copyright (c) Steve Scherf et al.
# Submitted via: ExactAudioCopyFreeDBPlugin 1.0
#
DISCID=8406650a
DTITLE=Witching Waves - Persistence
DYEAR=2019
DGENRE=Indie
TTITLE0=Disintegration
TTITLE1=Best Of Me
TTITLE2=Eye 2 Eye
TTITLE3=Hoax
TTITLE4=Shipping Container
TTITLE5=Melt It Down
TTITLE6=Money DigiMaster
TTITLE7=Underachiever
TTITLE8=Inside Outside
TTITLE9=Waiting For The Sun
EXTD=
EXTT0=
EXTT1=
EXTT2=
EXTT3=
EXTT4=
EXTT5=
EXTT6=
EXTT7=
EXTT8=
EXTT9=
PLAYORDER=
